<svg xmlns="http://www.w3.org/2000/svg" viewBox="0 0 422.22 243.87"><defs><style>.cls-1{fill:#f8f9fb;fill-rule:evenodd;}</style></defs><g id="Layer_2" data-name="Layer 2"><g id="New_Layer" data-name="New Layer"><path class="cls-1" d="M206.22.45c-26.37,12.79-89.53,44.9-104.91,52.8C80,64,21.14,93.13,0,104c.1,1,3.79,8.17,4.2,9.18,1.8,3.75,3,5.7,3.39,5.61,27.56-13.56,43.75-21.83,74-36.93,12.54-6.3,22.95-11.43,23.16-11.43s.42.3.54.66.18,9.9.18,21.12c0,17.13-.06,20.49-.42,20.61-6.83.29-39.1.34-39.39.66-.24.09-.33,2-.36,7.26,0,4.12-.14,41.13.09,44.7,90.28-.39,193.19-2.23,290.34-2-.37-17.68-.46-33.07-.45-50.91-.06,0-9.18-.15-20.31-.24-15.6-.12-20.28-.24-20.46-.54-.36-2.59-.26-31.06-.42-34-.18-5.37,0-8,.6-8,1.83.5,12.42,5.63,17,7.86,21.63,10.43,64.44,31.35,82.71,39.9.54.09,1.11-.93,6.3-11.55l1.59-3.21c-3.81-1.84-14-6.85-16.2-7.86-50.08-23.9-99.29-48-150.36-72.84-.3-.18-.78-.42-1-.6-9.22-4.45-18.12-8.77-28.44-13.65-1.47-.69-5.67-2.73-9.3-4.5C209.61-.18,208.53-.48,206.22.45Zm7.5,19.74c11.56,5.64,27.72,13.46,39.09,19,.27.18.75.42,1.05.6,8.22,4,25.68,12.54,34.29,16.77,5,2.4,5.82,2.94,5.43,3.51s-3,1.92-46.26,23.73c-17.58,8.88-24.21,12.27-26,13.26s-12.48,6-12.81,6C190,94.27,180.69,88.92,148,72.54,125.19,61,125,60.87,125.31,60.09c.09-.24,5.34-3.06,11.67-6.24,23.27-11.73,7.93-4.19,53.31-27,14.43-7.29,17.94-8.94,18.6-8.79A50.63,50.63,0,0,1,213.72,20.19Zm83.85,59.1c.27.63.48,31.74.24,32.37-.15.39-4.89.42-32.37.39-17.7,0-32.58-.12-33-.24s-.84-.42-.84-.63c10.92-6.67,61.73-30.54,64.65-32.19C297,78.69,297.36,78.78,297.57,79.29Zm-169,3c7.11,3.65,44.07,21.32,58,29.07.18.69-2.19.93-8.64.93-7.42,0-43.24.31-56.31.42-.49-2.75-.43-30.9-.21-32.61.09-.42.39-.75.63-.75S125.28,80.7,128.61,82.32Z"/><path class="cls-1" d="M291.27,172a17.37,17.37,0,0,0-9.3,4.23,16.71,16.71,0,0,0-3.15,3.87,4.84,4.84,0,0,1-.48,1.14c-1.08,2.07-1.65,5.82-1.59,10.26a20.15,20.15,0,0,0,.3,4.29c.15,0,.27.27.27.6a22.59,22.59,0,0,0,1.47,4.8,4,4,0,0,1,.57.93,12.15,12.15,0,0,0,1.17,1.65c.39.48.84,1,.93,1.17a16.89,16.89,0,0,0,4.8,3.42c4.8,2,13.11,2.22,17.07.45a4.5,4.5,0,0,1,1.32-.42c.54,0,2.34-1.38,4.05-3.18s3.51-5.1,3.36-6.48c-.09-.87-.24-1-1.95-1.62-2.12-.79-3.2-.74-5.16-1.44-1.5-.54-1.68-.48-2,.63a12,12,0,0,1-2.64,4.29,8.33,8.33,0,0,1-5.55,1.44c-5.1-.36-7.11-3.33-7.35-10.86-.06-3.77-.1-4.14.72-6.72A7.65,7.65,0,0,1,299,180.3a7.48,7.48,0,0,0,1.89.81c.36,0,.39.06.15.18-.73.13,1.3,1.75,1,1.89s-.09.21.12.45c.42.51,1.95.39,5.55-.48a26.59,26.59,0,0,1,3-.57c1,0,1.08-.78.27-1.56a1.4,1.4,0,0,1-.57-1.29c.18-.75-.9-2.25-1.62-2.25-.45,0-.45-.06-.06-.3s.36-.3,0-.3a4.58,4.58,0,0,1-1.59-1.26c-.63-.69-1.14-1.14-1.14-1s-.27-.06-.63-.39C303.69,172.53,296.82,171.45,291.27,172Z"/><path class="cls-1" d="M200.37,172.32a19,19,0,0,0-5.76,1.32c-.21.18-.39.21-.39.12s-2.16,1-4,2.13c-5.85,4.43-7.59,13.66-5.79,21.3,2.07,8.12,7.85,12.76,16.29,13.38,3.22.29,10.21-.5,13.47-2.37a19.12,19.12,0,0,0,6-6.36c2.85-5.49,2.79-15.45-.18-21.21a18.67,18.67,0,0,0-4.53-5,5.73,5.73,0,0,1-1.26-.93.51.51,0,0,0-.39-.24c-.23.05-2-.88-2.19-.9A29.17,29.17,0,0,0,200.37,172.32Zm6.78,8.61a9.55,9.55,0,0,1,3.54,3.84,30.41,30.41,0,0,1,.87,5.16,33.63,33.63,0,0,1-1.14,8.1c-.51,1.17-3,4.17-3,3.6,0-.12-.18-.09-.36.06-.48.39-1.56.63-3.48.87-1.78.42-6.28-1.48-6.63-2.67a6.67,6.67,0,0,0-.66-1.17c-1.8-2.52-1.95-11.73-.24-14.61a9.66,9.66,0,0,1,3.54-3.27A10,10,0,0,1,207.15,180.93Z"/><path class="cls-1" d="M233.94,172.8c-.48.09-.69.42-.81,1.14-.27,1.62.12,35.07.39,35.37s10,.36,10.47.06.26-7.05.3-8.64c1.25-1.47,2.38-2.79,4-4.56,1.92-2,2-2.07,2.67-1.62,1,.65.7,1.6,1.56,2.43a4,4,0,0,1,.9,1.62,4.28,4.28,0,0,0,.48,1.14c.21.16,4.77,9.37,5.1,9.45,0,.18,9,.14,13.47,0-.71-1.1-2.9-4.51-3.18-5.1-.07-.26-6-9.17-6.06-9.45s-1-1.71-2.07-3.45c-2.64-4.29-2.73-4.44-2.49-5.28s2.34-3.18,8-9.06c1.95-2,3.3-3.63,3.21-3.87s-1.5-.39-6.57-.36l-6.39,0a27.14,27.14,0,0,0-2.64,3,6.06,6.06,0,0,1-1.35,1.47.27.27,0,0,0-.24.3,2.69,2.69,0,0,1-.66,1c-.75.75-2.86,3.36-3.57,4.08-.24.27-.9,1-1.44,1.77-.9,1.14-2.22,1.89-2.64,1.47-.2.09-.42-12.88-.57-12.78A96.38,96.38,0,0,0,233.94,172.8Zm22.44,25.83c0,.4-.67.63-.66,0S256.35,198.24,256.38,198.63Z"/><path class="cls-1" d="M332.52,173.37a3.16,3.16,0,0,0-.48.75,2.77,2.77,0,0,1-.18.66A12.49,12.49,0,0,0,331,178a1.67,1.67,0,0,1-.24.87c-1.32,2.68-4.38,11.48-4.92,12.9-.45,1.26-1.63,3.74-2,5.1-1.48,4.59-3.35,8.46-4.2,12.21,0,.27,9.09.33,10.11.06.87.11,1.91-4.53,2.07-5,.21-1.11.84-1.23,7.29-1.23,7.68,0,7.05-.36,8.73,4.8a4.25,4.25,0,0,0,.69,1.41c.69.24,8.67.27,10.77.27a7.66,7.66,0,0,0-.69-2.28,1.31,1.31,0,0,1-.27-.81,12.83,12.83,0,0,0-1.05-2.82,16.14,16.14,0,0,1-1-2.61,1.08,1.08,0,0,0-.27-.66c-.55-1-1.85-5.14-2.55-6.3a6.76,6.76,0,0,1-.78-2c0-.33-.12-.57-.27-.57a7.21,7.21,0,0,1-.9-2.25,9.92,9.92,0,0,0-1-2.4.81.81,0,0,1-.27-.6,8.76,8.76,0,0,0-.66-1.86c-.33-.78-.66-1.59-.72-1.74a7.31,7.31,0,0,0-.42-1.2c-.48-1.21.1-.76-.84-1.71-.36-.42-.57-.81-.48-.93s.06-.36-.09-.57a4,4,0,0,1-.51-1.23c-.12-.51-.33-.75-.54-.63s-.24.09-.15-.09c.3-.35-.84-2.58-.75-2.88,0-.12-.18-.21-.45-.24l-6.09-.06C333.54,172.83,332.94,172.89,332.52,173.37Zm12.42,8a1,1,0,0,1,0,.78c-.15.39-.24.42-.45.09a1.63,1.63,0,0,1-.27-.78C344.22,181,344.7,181,344.94,181.35Zm-5.61,1a14.81,14.81,0,0,1,1,2.19c.39,1,.87,2.16,1.08,2.58,1.05,1.92,2.37,7.71,1.92,8.25s-2.07.75-5.31.54c-2.79-.18-3.15-.27-3.33-.84-.42-1.85.92-3.68,1.47-6.18C336.74,187.3,337.76,180.64,339.33,182.34Z"/><path class="cls-1" d="M167.76,173.19c-2.28.09-3.24.21-3.27.48,0,0-.2,18.83-.42,18.81a.67.67,0,0,1-.54.3c-.33,0-2.34-2.49-4.11-5.1a5.7,5.7,0,0,0-1-1.14.5.5,0,0,1-.24-.39,21.45,21.45,0,0,0-2.52-3.72,7.59,7.59,0,0,1-1.29-2c-.43-.88-2.8-3.84-3.33-4.8-1.5-2.52-1.23-2.43-6.63-2.31a48.1,48.1,0,0,0-5,.3c-.25,1.7-.26,29.89-.27,36.54,1.39.51,7.7-.11,10.23-.18.06-4.73,0-19.15.57-19.32.45-.72,1.47.36,3.78,4,2.51,3.76,4.86,7,8,11.7,1.26,1.8,2.4,3.39,2.58,3.51.45.3,9.54.27,10,0s.39-35.82-.09-36.3S171.69,173.07,167.76,173.19Zm-21.84,33.57c0,.24-.12.36-.3.27C144.84,206.52,145.85,205.77,145.92,206.76Z"/><path class="cls-1" d="M117.66,173.82l-.81.09c-.25,8.77-.07,25.67,0,36.9l11-.18c0-6.49.23-35.56-.18-36.48-.27-.51-.69-.57-4.71-.48C120.45,173.7,118.11,173.76,117.66,173.82Z"/><path class="cls-1" d="M90.72,174.33c-.24.3-.33.6-1.65,5.85-.67,2.84-1,3.76-1.47,5.7a9.35,9.35,0,0,1-.42,1.5c-1.34,3.57-2,13.77-4.11,5-1.69-5.91-3.4-13.16-4.8-17.85-.27-.45-14.49-.36-14.76.09S63,210,63.24,211c.18.66.27.66,4.17.63a23.55,23.55,0,0,0,4.5-.27c.48-.27.51-.9.51-7.26,0-15.6.06-18.48.48-19s.39-.51.42.06a1.46,1.46,0,0,0,.27.9,7.42,7.42,0,0,1,.6,1.8,19.4,19.4,0,0,0,.63,2.1c.12.33.39,1.41.6,2.4s.54,2.4.75,3.15c.39,1.17,1.38,4.86,1.8,6.75.22.84,1.91,7.1,2.4,9a59.15,59.15,0,0,0,6.93,0c1.53-.21,1.53-.18,3.69-9,2.94-12,4.2-16.38,5-17.64.54-.84.72,2.4.69,14,0,5.76,0,11,0,11.46l0,1c1.75,0,8,.06,8.64-.24.6,1.33.18-31,.21-36.81-1.4,0-7.66-.34-7.68.21-.18.27-.33.27-.66,0C96.72,173.82,91.08,173.88,90.72,174.33Z"/><path class="cls-1" d="M234,216.06c-33,.23-100.69.62-125.91,1.17-15.57.3-29.4.26-42.87.93-.2,1.19-.35,21-.36,25.71,84.18-.38,221.05-.35,291.45-.72.39-.39.06-26.58-.3-27C355.89,216.06,234.18,215.91,234,216.06Z"/></g></g></svg>