<svg xmlns="http://www.w3.org/2000/svg" viewBox="0 0 455.71 192.5"><defs><style>.cls-1{fill:#63aa45;}.cls-2{fill:#468e45;}.cls-3{fill:#845988;}.cls-4{fill:#ec2027;}.cls-5{fill:#48616c;}.cls-6{fill:#7b6ca3;}.cls-7{fill:#7870a4;}.cls-8{font-size:30px;fill:#231f20;font-family:Poppins-Regular, Poppins;}</style></defs><g id="Layer_2" data-name="Layer 2"><g id="Layer_1-2" data-name="Layer 1"><path class="cls-1" d="M68,0,64.5,8.5l2.5,8h1.5V16c.35-2,2.36-3.09,3.28-5C73.59,7.24,70.9,2.4,68,0Z"/><path class="cls-1" d="M29.5,9.5c2.1,7.27,7,9.85,14,8C42.19,10.16,35.78,9.5,29.5,9.5Z"/><path class="cls-2" d="M44,18c-1.11,3.56-13.8,10-17.5,10C23.5,34.21,7,41.51,19,48.89a20.13,20.13,0,0,0,4.5,2A25.23,25.23,0,0,0,30,52V51c-2.16-.28-3.9-.5-5-2.5h-.5c-4.37,2.76-8.76-4.69-6.5-8.5,3.18-5.34,9.82-9.09,15-12.2,13.42-8,30.91-17.8,43.34-2.8,6.49,7.87,8.09,17.77,9.37,27.5.39,3-1,9.39,2.29,10.5l-.5-18c-2.5-2.85-6.22-13.28-6-17-5.77-2.81-8.2-9.88-15-11.92a24.27,24.27,0,0,0-13-.7C50.22,16.24,47.48,18.65,44,18Z"/><path class="cls-1" d="M82,27.5c8.11-.71,8.46-6.62,10.5-13C84.45,15.69,81.86,19.9,82,27.5Z"/><path class="cls-3" d="M34.83,17.67l.34.16Z"/><path class="cls-1" d="M14,19.5c1.74,6,5.61,8.24,11.5,7.5C23.88,20.2,19.64,20.84,14,19.5Z"/><path class="cls-4" d="M53.5,27c-.36,4.75-5.68,5.34-2.5,10.5-2.67,0-6-1-8.5-.15-6.35,2-11.54,10.26-13.71,16.23-.84,2.33-.43,4.27-2.06,6.42A21,21,0,0,1,21,65.5c-1.79.91-4.19.77-5.5,2.61C11,74.9,14,83,4,83c0,3.35.5,7.5-4,6.5,0,6.31,4.22,8,9.5,10H10c3.35-4.7,9.6-10.74,10.5-16.5-7.15-3.42-3.82-12,1-16l3.28,9.5-3.28,8c5.91-2.94,10.71-7.44,17-9.87,2.3-.89,6.12-1.12,7-3.63-8.36.36-11.18-3-13.5-11l10.89,4.11L46.5,72c3.86-.72,11.22,0,12-5l-2,.5C56.73,65,56.38,64,54,63a21.68,21.68,0,0,1,5.22-9.43C60.73,52,63,51.5,64,49.5c2.89-5.5-.72-11-2.63-16-.55-1.48-.49-4-1.67-5C58.28,27.09,55.33,27.08,53.5,27Z"/><path class="cls-1" d="M25,48.5c7.89-2.41,7.12-7.5,8-14.5C25.1,36.5,23.93,41.25,25,48.5Z"/><path class="cls-5" d="M46,37v.5h2Z"/><path class="cls-1" d="M98,37c-5,1.86-9.66,1.5-10,8C92.68,45.87,99.2,42.82,98,37Z"/><path class="cls-1" d="M61,66.5,66.34,61,67,50.5c-5.78,1.24-8,4.78-8,10.5C59,63.27,58.87,65.29,61,66.5Z"/><path class="cls-1" d="M33,61.5c.74,3.21,7,14.51,11.48,8.63C48.73,64.59,36,61.52,33,61.5Z"/><path class="cls-2" d="M55,62l1.5,5h2l-2,3.5V71C63.15,69.65,59.3,63.64,55,62Z"/><path class="cls-4" d="M60.5,66.5c-1,6.34-13.41,6.79-18.5,8.66-11.4,4.2-26.37,14-30,26.34h2.5v-2l12.5-2c-3,3.7-5,7.09-9.5,9l3.7,9.5,1.6,5.58L29,124l16.5,5,3-8H49l4.09,9-.25,6.5L58,156a8.46,8.46,0,0,1,7.5,8c7.91-2.49-4.32-13.76-6-17,3.25-1.47,4.28-4,3.5-7.5,2.5-.3,3.74-2,2-4.36-3.65-5.14-10-7-10.53-14.14-.18-2.32-2.79-5.29.53-6,0-8.2,4.75-8.1,11-10.85,7.3-3.24,14.31-6.4,19.35-12.39,1.4-1.66,3-2,3.7-4.26l-7.89,1.15L77.8,84.76,70.5,83l3-7.5c-6.5-1-2.82-5.5-5.87-8.7C66,65.14,62.49,66.34,60.5,66.5Z"/><path class="cls-1" d="M20.5,68c-4.5,5.82-5.12,12.5,1,17.5-.31-2.78,2-4.41,2.68-7C25.14,75,22.64,70.6,20.5,68Z"/><path class="cls-2" d="M46,72c-2.5,2-6.13,2.36-9,3.66-5.63,2.53-11.75,6-16.31,10.14A52.27,52.27,0,0,0,13.34,95c-1.88,2.79-3.95,5.76-4.95,9-5.89,18.82,23.7,23.66,36.11,26.5-1.06-3.64-13-5.82-16.5-7-5.82-1.94-14-3.37-16.82-9.5-1.27-2.67-1-5.7-1.68-8.5,1.89-1.39,2.35-4,3.45-6a48.31,48.31,0,0,1,6.64-9,61.27,61.27,0,0,1,36.91-19Z"/><path class="cls-6" d="M17.67,71.83l.16.34Zm5,0,.16.34Z"/><path class="cls-2" d="M37,75v.5l2.5-.5Z"/><path class="cls-1" d="M9.5,106.5c9-.71,12-1,17.5-9C19,96.86,14,99.62,9.5,106.5Z"/><path class="cls-1" d="M39.5,109c-4,2-9.23,10.57-3.81,14.07,3.25,2.1,5.91-4.17,5.63-6.57S39.84,111.56,39.5,109Z"/><path class="cls-1" d="M48.5,122l-3.65,9L50,139.5h.5c.39-2.5,2.18-4.41,2.5-7C53.62,129,50.5,124.67,48.5,122Z"/><path class="cls-1" d="M70.5,122.5c-4.41,3.27-5.3,7-6.5,12l2.5,5C71.77,134.06,74.13,130.05,70.5,122.5Z"/><path class="cls-4" d="M19,138.5c8.79,1.66,20.38.19,25.5-8-5.19-.43-10.5-2.5-15.5-3.89-1.6-.42-4.21-1.88-5.84-1.26C20.37,126.41,19,135.85,19,138.5Z"/><path class="cls-7" d="M52.67,128.83l.16.34Z"/><path class="cls-2" d="M63.5,139.5v.5c14.33,10.31,1,29.61-7.59,38.55-3.59,3.74-12.49,15.64-8.41,11.95,10.32-9.31,22.81-23.14,24.78-34.5C73.23,150.51,71.22,138.32,63.5,139.5Z"/><path class="cls-2" d="M70.17,143.33l.16.34Z"/><path class="cls-1" d="M53,155c1.16,7.71,5.83,10.71,13,9.5C63.93,157.22,59.86,156.33,53,155Z"/><path class="cls-4" d="M68.5,166.5c-3,5.5-1.53,10.5-3.35,16-1.26,3.88-4.65,5.86-2.15,10h.5C67.8,186,77.09,173.25,68.5,166.5Z"/><path class="cls-1" d="M42.5,172.5c-2.41,5.15-4,12.2,2.5,15L44,189v.5l3.5,1.5C47.59,182.58,48.65,179.34,42.5,172.5Z"/><path class="cls-2" d="M44,189.5,42,191v.5c1.85.5,3,.83,4.5-.5Z"/><text class="cls-8" transform="translate(89 100.03)">Min Myanmar Nwe</text></g></g></svg>