<?xml version="1.0" standalone="no"?>
<!DOCTYPE svg PUBLIC "-//W3C//DTD SVG 20010904//EN"
 "http://www.w3.org/TR/2001/REC-SVG-20010904/DTD/svg10.dtd">
<svg version="1.0" xmlns="http://www.w3.org/2000/svg"
 width="423.000000pt" height="423.000000pt" viewBox="0 0 423.000000 423.000000"
 preserveAspectRatio="xMidYMid meet">
<metadata>
Created by potrace 1.11, written by Peter Selinger 2001-2013
</metadata>
<g transform="translate(0.000000,423.000000) scale(0.100000,-0.100000)"
fill="#000000" stroke="none">
<path d="M1624 3114 c-247 -125 -713 -359 -1036 -520 -578 -289 -587 -294
-578 -318 17 -46 60 -126 68 -126 4 0 223 108 487 240 406 203 481 237 486
222 7 -22 5 -389 -2 -397 -4 -3 -91 -7 -195 -8 -108 -1 -192 -6 -196 -11 -4
-6 -7 -124 -8 -263 l-1 -254 598 6 c1249 13 1420 14 1860 15 l452 1 -2 249
c-2 137 -6 252 -10 256 -3 4 -92 8 -197 9 -105 2 -194 6 -198 9 -7 8 -10 393
-3 405 3 4 63 -19 132 -53 758 -369 862 -418 870 -409 13 14 69 125 69 137 -1
6 -22 21 -48 33 -26 12 -128 61 -227 109 -99 47 -220 105 -270 129 -49 23
-184 89 -300 145 -115 56 -282 137 -370 180 -88 43 -268 130 -400 195 -333
162 -509 245 -521 245 -6 0 -213 -102 -460 -226z m624 -35 c489 -237 682 -334
679 -342 -1 -5 -191 -105 -421 -221 l-417 -211 -415 210 c-227 116 -414 212
-414 215 0 9 27 23 424 224 212 108 393 196 402 196 9 0 82 -32 162 -71z
m-703 -696 c173 -86 312 -159 309 -162 -3 -3 -147 -7 -320 -8 -293 -3 -314 -2
-315 15 -1 28 -1 255 0 285 1 15 3 27 6 27 3 0 147 -70 320 -157z m1431 -5 l1
-157 -176 -3 c-97 -2 -243 -1 -326 2 l-150 5 40 24 c22 13 141 72 265 132 124
60 245 120 270 133 76 40 75 42 76 -136z"/>
<path d="M1962 1604 c-54 -15 -80 -38 -103 -89 -34 -75 -20 -178 34 -234 37
-40 87 -55 163 -48 71 5 100 20 139 71 30 39 40 120 23 186 -11 44 -56 96 -95
111 -42 16 -114 17 -161 3z m128 -96 c18 -20 23 -36 23 -83 0 -70 -22 -105
-67 -110 -67 -8 -99 38 -91 130 3 36 10 55 26 67 30 25 84 23 109 -4z"/>
<path d="M2861 1598 c-72 -37 -90 -72 -92 -173 -2 -86 49 -166 113 -180 96
-22 165 -7 209 42 41 47 36 75 -14 88 -32 7 -41 6 -48 -8 -19 -32 -41 -47 -72
-47 -18 0 -37 4 -43 8 -22 14 -35 54 -36 103 0 57 21 96 57 105 28 7 81 -11
88 -30 8 -21 81 -5 85 18 5 22 -41 72 -77 84 -54 18 -124 14 -170 -10z"/>
<path d="M1423 1603 l-32 -4 0 -184 0 -185 52 3 52 2 3 90 c1 50 4 94 5 100 2
5 17 -10 33 -35 16 -25 35 -51 42 -58 7 -8 19 -26 26 -40 27 -52 55 -63 133
-53 15 1 13 359 -2 364 -8 3 -59 2 -86 -2 -3 -1 -5 -29 -5 -63 1 -35 -1 -79
-4 -98 l-5 -34 -64 94 c-35 52 -65 95 -65 96 -4 5 -57 10 -83 7z"/>
<path d="M2334 1596 c-3 -8 -4 -90 -2 -182 l3 -169 55 0 54 0 1 42 c1 33 8 50
30 73 17 17 33 26 38 21 5 -5 24 -37 42 -72 l33 -64 72 -3 71 -3 -71 115 c-80
130 -80 123 -6 196 25 24 46 48 46 52 0 15 -138 9 -147 -6 -13 -22 -96 -116
-103 -116 -3 0 -6 17 -6 38 -2 97 1 92 -54 92 -34 0 -52 -5 -56 -14z"/>
<path d="M3321 1587 c-5 -12 -34 -90 -65 -173 -31 -82 -56 -155 -56 -162 0 -8
18 -12 49 -12 45 0 50 2 61 30 16 38 42 44 145 31 6 0 16 -14 22 -31 10 -28
15 -30 62 -30 47 0 51 2 51 23 0 13 -4 27 -8 33 -5 5 -28 59 -51 119 -24 61
-52 129 -62 152 l-19 42 -61 0 c-52 -1 -61 -3 -68 -22z m92 -119 c29 -77 27
-83 -20 -86 -29 -2 -43 1 -43 9 0 21 33 119 40 119 4 0 14 -19 23 -42z"/>
<path d="M642 1585 c-4 -5 -7 -90 -8 -187 l-1 -178 47 0 48 0 1 126 c0 70 2
128 4 130 2 3 16 -44 31 -103 39 -156 38 -154 86 -151 45 2 37 -13 80 158 12
47 25 89 29 93 5 5 8 -36 9 -90 1 -177 -5 -160 47 -159 l45 1 0 188 0 187 -77
-3 -77 -3 -26 -102 c-15 -56 -29 -104 -32 -107 -3 -3 -13 25 -23 62 -9 37 -23
86 -29 107 l-12 39 -68 1 c-37 1 -71 -3 -74 -9z"/>
<path d="M1169 1518 c-2 -201 1 -282 10 -288 11 -6 89 -5 96 2 4 4 8 211 6
316 l-1 52 -55 0 -55 0 -1 -82z"/>
<path d="M1567 1173 c-1 0 -195 -4 -432 -8 -236 -4 -441 -7 -455 -8 l-25 -2
-3 -127 c-2 -117 -1 -128 15 -129 37 -1 2291 2 2588 4 l310 2 0 128 c0 77 -4
131 -10 135 -8 6 -1983 11 -1988 5z"/>
</g>
</svg>
